HIERARCHY
ROOT Hips
{
  OFFSET 0.000000 0.000000 0.000000
  CHANNELS 6 Xposition Yposition Zposition Zrotation Xrotation Yrotation
  JOINT RightUpLeg
  {
    OFFSET -5.925484 -8.982778 -1.393360
    CHANNELS 3 Zrotation Xrotation Yrotation
    JOINT RightLeg
    {
      OFFSET -15.472652 -36.258541 -7.272977
      CHANNELS 3 Zrotation Xrotation Yrotation
      JOINT RightFoot
      {
        OFFSET -2.233261 -29.726410 -30.653608
        CHANNELS 3 Zrotation Xrotation Yrotation
        JOINT RightToeBase
        {
          OFFSET -10.038224 -9.719216 5.946100
          CHANNELS 3 Zrotation Xrotation Yrotation
          End Site
          {
            OFFSET 0.000000 4.000000 0.000000
          }
        }
      }
    }
  }
  JOINT LeftUpLeg
  {
    OFFSET 6.087716 -8.423257 1.078902
    CHANNELS 3 Zrotation Xrotation Yrotation
    JOINT LeftLeg
    {
      OFFSET 10.740601 -33.867260 16.774494
      CHANNELS 3 Zrotation Xrotation Yrotation
      JOINT LeftFoot
      {
        OFFSET -0.572523 -43.247108 -3.095515
        CHANNELS 3 Zrotation Xrotation Yrotation
        JOINT LeftToeBase
        {
          OFFSET 7.781985 -3.191948 11.112802
          CHANNELS 3 Zrotation Xrotation Yrotation
          End Site
          {
            OFFSET 0.000000 4.000000 0.000000
          }
        }
      }
    }
  }
  JOINT Spine
  {
    OFFSET 1.086928 12.588387 -3.997429
    CHANNELS 3 Zrotation Xrotation Yrotation
    JOINT Spine1
    {
      OFFSET -0.906186 13.996768 2.163178
      CHANNELS 3 Zrotation Xrotation Yrotation
      JOINT Spine2
      {
        OFFSET -0.753718 4.386806 3.268196
        CHANNELS 3 Zrotation Xrotation Yrotation
        JOINT Neck
        {
          OFFSET -2.939755 21.932709 -1.868831
          CHANNELS 3 Zrotation Xrotation Yrotation
          JOINT Head
          {
            OFFSET -2.507011 7.054389 6.612314
            CHANNELS 3 Zrotation Xrotation Yrotation
            End Site
            {
              OFFSET 0.000000 4.000000 0.000000
            }
          }
        }
        JOINT RightShoulder
        {
          OFFSET -8.783918 10.989785 -3.762954
          CHANNELS 3 Zrotation Xrotation Yrotation
          JOINT RightArm
          {
            OFFSET -12.238085 -1.889825 0.663348
            CHANNELS 3 Zrotation Xrotation Yrotation
            JOINT RightForeArm
            {
              OFFSET -4.929964 -23.791063 7.423304
              CHANNELS 3 Zrotation Xrotation Yrotation
              JOINT RightHand
              {
                OFFSET 15.322134 -4.800904 20.738823
                CHANNELS 3 Zrotation Xrotation Yrotation
                End Site
                {
                  OFFSET 0.000000 4.000000 0.000000
                }
              }
            }
          }
        }
        JOINT LeftShoulder
        {
          OFFSET 5.669610 12.629843 -0.432127
          CHANNELS 3 Zrotation Xrotation Yrotation
          JOINT LeftArm
          {
            OFFSET 13.307339 1.102769 3.723055
            CHANNELS 3 Zrotation Xrotation Yrotation
            JOINT LeftForeArm
            {
              OFFSET 12.808953 -19.665039 0.551281
              CHANNELS 3 Zrotation Xrotation Yrotation
              JOINT LeftHand
              {
                OFFSET -9.546447 -11.720764 17.426720
                CHANNELS 3 Zrotation Xrotation Yrotation
                End Site
                {
                  OFFSET 0.000000 4.000000 0.000000
                }
              }
            }
          }
        }
      }
    }
  }
}
MOTION
Frames: 13
Frame Time: 0.050000
0.000000 0.000000 0.000000 -0.000000 0.000000 0.000000 -0.000000 0.000000 0.000000 -0.000000 0.000000 0.000000 -0.000000 0.000000 0.000000 -0.000000 0.000000 0.000000 -0.000000 0.000000 0.000000 -0.000000 0.000000 0.000000 -0.000000 0.000000 0.000000 -0.000000 0.000000 0.000000 -0.000000 0.000000 0.000000 -0.000000 0.000000 0.000000 -0.000000 0.000000 0.000000 -0.000000 0.000000 0.000000 -0.000000 0.000000 0.000000 -0.000000 0.000000 0.000000 -0.000000 0.000000 0.000000 -0.000000 0.000000 0.000000 -0.000000 0.000000 0.000000 -0.000000 0.000000 0.000000 -0.000000 0.000000 0.000000 -0.000000 0.000000 0.000000 -0.000000 0.000000 0.000000
-2.731080 -1.266629 -4.631087 0.171801 -0.354015 0.085580 -1.101686 4.364198 -1.554172 0.519081 -3.285344 1.972583 2.602535 1.097583 -1.093304 -2.071865 -1.851592 0.594385 1.483159 -3.628856 -0.469190 -0.365690 -0.239454 0.410762 -0.028404 3.786946 3.216118 -1.237513 0.500870 -3.214798 1.107719 -2.209342 -0.428912 -0.453663 3.225212 -0.163748 -0.052592 -0.969622 0.548049 -1.344187 -0.697244 0.141063 0.559183 0.999046 -0.172261 0.773477 0.463880 -0.581084 -3.038429 -0.148337 0.070701 3.009892 -1.861342 1.087954 -1.496544 1.859567 -0.569078 0.492083 0.048587 -1.491663 -0.115848 -2.158864 -0.042347 -3.395968 -2.087273 1.652294 2.356046 4.398401 -0.184832
-6.189773 -2.441680 -9.771822 0.425393 -1.493107 0.268529 0.924496 5.659769 -2.381944 -0.403899 -7.404927 1.633203 -2.788693 -2.731017 5.032507 2.635257 5.729506 -4.694655 3.731734 -4.775791 -0.058228 1.902583 -2.824369 -0.352403 -4.232232 6.535408 0.981142 -1.881379 2.525515 -0.397338 2.566334 -1.315372 -0.908169 -0.358003 4.432123 -1.143770 -1.060715 -1.619158 1.842900 -2.835552 -1.872837 0.371198 1.269155 1.814154 -0.554574 1.200703 0.302739 -1.757429 -5.797482 -0.236931 0.582917 5.270328 -2.199710 3.798933 -2.108714 2.110662 -2.708582 0.031128 -0.484784 -0.428301 -0.010031 -2.332076 -1.412398 -6.023619 -7.199445 2.520649 4.845661 9.688275 -1.324275
-9.822124 -2.656996 -15.154284 1.168673 -1.361653 0.501135 2.815572 2.482442 -1.908220 0.623097 -8.714753 -2.568550 -13.449427 -8.771521 12.830590 12.129956 13.568845 -9.859338 3.167233 -5.157701 -0.229719 4.225548 -10.573978 0.064797 -3.336703 8.881169 -0.639455 -5.483354 8.056888 1.499282 3.250360 -0.824899 -1.319019 -0.683818 4.555205 -1.682126 -1.315876 -0.283447 2.848411 -2.262974 -2.218421 -0.780270 -0.233775 0.056755 0.239473 1.386568 -1.625001 -3.381377 -7.473177 1.340314 1.379887 3.463840 -1.225758 4.440480 0.043065 -0.969893 -2.802684 -1.815697 -2.426323 0.402596 -1.794610 -2.582088 -2.857525 -8.178314 -12.466454 -0.397302 9.368609 15.274688 0.253771
-12.638185 -0.826454 -19.581881 0.735930 -1.210322 0.345011 5.385631 0.690949 -1.478025 -0.352041 -11.260319 -3.760933 -13.718301 -8.160206 17.678272 12.948105 16.114105 -13.302129 0.087335 -6.852708 -2.347207 4.556803 -5.393217 1.809289 -1.415813 5.634352 -4.387186 -4.492923 7.626524 4.861562 5.165798 -0.117735 -1.381351 -1.424894 4.824131 -1.881279 -2.076390 0.126795 3.350079 -1.635027 -2.051697 -0.965548 -0.869447 -1.714121 0.196032 0.648299 -3.127187 -4.491149 -8.099838 4.496138 1.375582 2.235069 -1.856961 4.383140 2.347538 -3.807998 -1.602413 -3.242881 -3.568290 -0.554097 -4.248222 -2.292059 -1.979101 -11.012174 -18.379649 -5.986471 14.741234 21.556091 2.370926
-14.670753 0.848311 -22.753063 -0.109970 0.046121 -0.038861 8.242801 -0.304883 -1.504777 -2.049681 -15.836710 -2.857347 -12.933958 -4.433709 19.469712 12.378747 16.726996 -14.487798 -3.321594 -9.437674 -4.780309 3.583120 5.358797 4.206729 -1.466294 1.832943 -8.611309 0.503030 2.599258 8.653509 7.151862 0.101062 -1.040380 -1.922544 4.089509 -2.137031 -3.284925 0.451847 3.710926 -0.373473 -2.817987 -1.538592 -1.567020 -2.093454 0.711860 -0.309814 -3.897144 -7.260896 -7.558140 7.750360 3.222961 2.928473 -6.066993 3.939648 2.389079 -3.323149 -0.182695 -3.500085 -4.188527 -3.406037 -6.536345 -3.513159 0.080315 -16.854371 -19.477592 -15.071361 20.668103 26.536115 8.235427
-16.499256 1.998776 -25.110685 -1.106242 2.091714 -0.514277 11.067957 -1.716788 -1.295624 -3.486788 -20.243810 -1.767912 -11.123529 -0.462056 21.024522 10.709670 17.070050 -15.680356 -5.786157 -10.590201 -6.224908 3.074697 13.035310 6.222624 -2.831157 0.039726 -11.124055 6.025144 -3.111599 11.063837 8.488648 -0.405767 -0.317452 -1.446642 3.046588 -2.664729 -4.955149 0.729581 4.154035 0.354980 -4.100699 -1.593887 -1.461530 -1.622305 0.786738 -0.703972 -4.121089 -11.139503 -7.097443 9.957521 6.551522 4.748896 -11.243544 4.239700 0.879392 -1.058739 0.402009 -3.215726 -4.357101 -7.879602 -7.813471 -5.729355 3.454574 -21.803619 -14.084449 -24.356968 24.776386 27.880992 17.575501
-18.227026 2.873141 -26.873680 -1.769417 4.229134 -0.870943 13.601819 -2.923136 -1.178757 -4.644319 -25.010960 -0.568968 -9.274920 2.938093 23.032135 9.389761 18.034898 -17.606588 -7.242100 -11.027528 -6.815556 3.143659 16.271640 7.286884 -4.372598 0.321093 -12.509286 10.212748 -7.355516 12.677244 8.767269 -0.759511 0.442797 -0.582981 1.466318 -3.054695 -6.836056 1.485883 4.393788 0.972779 -6.046775 -1.239469 -0.741700 -0.673537 0.455055 -0.456048 -4.526872 -14.683328 -7.300649 12.130408 9.589867 7.873115 -17.040187 5.667176 -1.354908 1.988527 0.583102 -2.803347 -4.342869 -13.760626 -7.443872 -8.847361 7.929839 -23.164242 -3.132545 -31.620938 27.036672 24.791624 29.480821
-19.822104 3.451347 -28.079292 -2.482148 6.206089 -1.208628 16.983564 -3.000442 -1.600358 -5.989832 -31.037548 1.408009 -7.874356 6.208631 24.964262 8.712502 19.271495 -19.665579 -7.392237 -11.373348 -6.650045 3.825388 16.258012 7.339372 -4.141527 -1.457615 -13.430971 10.250280 -7.015128 13.406887 7.816939 -0.896496 1.313904 1.545883 0.439756 -3.466706 -8.940578 1.784303 4.472043 2.151406 -8.015106 -1.059850 -0.318960 0.086230 0.329951 -0.303293 -5.162750 -17.440188 -7.821696 14.490021 11.777338 11.009819 -22.086121 6.641738 -2.867428 4.261256 1.742777 -2.461404 -3.832339 -22.423353 -4.343245 -13.972136 14.154407 -20.857356 14.331719 -36.873267 29.250978 16.372136 44.266180
-21.126089 3.192669 -28.563780 -2.316086 7.930251 -1.286857 18.433935 -3.541080 -1.846359 -6.114554 -33.655719 1.945489 -8.631014 6.800072 26.579262 9.176849 19.824562 -20.349537 -7.076698 -12.473305 -6.257926 3.593203 14.155442 6.862610 -2.006862 -3.251050 -11.629016 7.399743 -4.614256 11.396757 5.334538 -0.048519 1.845002 3.638213 -1.114507 -3.383660 -9.874865 2.755565 4.235381 3.515531 -11.667843 -1.934691 -0.687391 1.653330 1.227811 -0.069062 -6.945634 -18.759050 -7.226488 15.063074 12.867765 12.747663 -24.434006 7.786191 -4.341488 6.128154 1.614626 -2.801220 -4.108985 -29.206907 -1.578237 -17.798190 18.917037 -11.817983 29.980743 -39.215111 30.330518 3.406205 53.528740
-22.034750 3.031313 -28.281551 -1.623604 9.311728 -1.219149 19.039737 -3.686712 -2.436386 -6.425412 -35.073041 2.649693 -9.180222 5.758996 27.677789 10.115314 20.518493 -21.129905 -6.720195 -14.280850 -6.010772 3.119762 12.878656 6.327703 -0.610995 -4.094755 -9.812586 5.121036 -2.694646 9.542482 2.752750 0.686416 2.025458 4.909641 -2.201757 -2.962250 -9.725268 3.332766 3.751861 2.900226 -15.071925 -2.002152 0.245798 3.482512 0.971687 -0.514657 -8.770203 -17.359752 -4.603267 15.343554 11.536053 14.453429 -26.408396 9.847114 -6.854702 9.143277 0.314084 -3.610724 -4.357069 -32.829542 -0.809928 -19.768504 21.423016 0.521178 39.233907 -40.143698 29.446917 -9.286658 55.614373
-22.462994 2.700412 -26.995628 -0.349526 10.211273 -0.991632 18.224441 -2.299637 -4.084287 -6.316475 -36.318734 4.128707 -8.733413 4.121558 27.527820 10.328637 20.790780 -21.490835 -6.975272 -15.696064 -5.973228 2.225948 13.093876 5.939689 0.533651 -5.575929 -8.444644 3.534593 -1.317200 8.180498 0.010478 0.759154 1.778469 5.017392 -2.393976 -2.104195 -8.318630 2.873424 2.685487 0.923607 -16.231209 -1.015658 2.268832 4.464907 -0.601609 -0.713566 -9.703547 -13.415269 0.065841 15.007097 8.378256 18.055002 -30.203615 14.207945 -12.256879 15.978760 -1.830946 -4.926018 -4.037761 -31.217645 -1.904960 -17.512073 21.273746 10.014398 37.492240 -37.396810 24.223349 -17.297462 48.679889
-22.338966 2.023047 -24.216990 1.016426 10.278038 -0.678356 16.719616 0.277444 -6.297695 -6.366911 -36.782762 5.951266 -6.986559 3.634536 25.111011 8.382622 19.528380 -20.148515 -7.854545 -15.782386 -6.134684 1.761949 14.789684 5.691749 0.690792 -7.575045 -7.547124 3.073924 -1.107187 7.300721 -2.025166 0.188923 1.235403 3.996809 -1.315651 -1.042062 -6.312138 1.327768 1.295780 -1.489990 -15.011759 0.803821 4.638402 4.260189 -2.866218 0.078232 -9.469829 -8.447064 4.680809 13.722088 4.881680 24.422038 -34.883702 21.768883 -19.731476 25.759594 -3.856810 -5.404865 -4.161901 -23.807603 -3.764684 -10.890303 18.014236 12.744524 27.988952 -30.699431 16.096965 -19.292661 36.282717
